# Blender v2.77 (sub 0) OBJ File: ''
# www.blender.org
o Cylinder
v 0.015674 2.466367 -0.253986
v 0.019167 3.227034 0.022685
v 0.028745 3.227034 0.026171
v 0.199847 2.466368 -0.186952
v 0.033842 3.227034 0.034998
v 0.292234 2.403041 -0.023413
v 0.032072 3.227034 0.045036
v 0.263809 2.466367 0.175798
v 0.024263 3.227034 0.051588
v 0.113670 2.466367 0.301780
v 0.014070 3.227034 0.051588
v -0.087932 2.403041 0.295584
v 0.006262 3.227034 0.045036
v -0.232462 2.466367 0.175798
v 0.004492 3.227034 0.034998
v -0.266496 2.466367 -0.017217
v 0.009589 3.227034 0.026171
v -0.174109 2.403041 -0.193148
v -0.005440 -0.809443 -0.939428
v 0.637348 -0.809443 -0.705472
v 0.979368 -1.003520 -0.113076
v 0.860586 -1.003520 0.560572
v 0.336580 -0.809443 1.000265
v -0.353069 -0.872769 0.994068
v -0.871465 -1.003520 0.560572
v -0.990247 -1.003520 -0.113076
v -0.653837 -1.066847 -0.711668
v -1.162461 -1.054853 -0.150182
v -0.862932 -0.453387 -0.094124
v -0.569643 -0.516713 -0.618026
v -0.766733 -1.118179 -0.851516
v -0.002290 -0.453387 -0.816288
v -0.006855 -1.054853 -1.119851
v -1.023078 -1.054853 0.640299
v -0.759126 -0.453387 0.494589
v -0.413802 -1.118179 1.150053
v -0.306797 -0.516713 0.872648
v 0.394483 -1.054853 1.156250
v 0.296607 -0.453387 0.878845
v 1.009368 -1.054853 0.640300
v 0.754545 -0.453387 0.494589
v 1.143143 -1.118179 -0.156378
v 0.858351 -0.453387 -0.094124
v 0.747414 -1.054853 -0.845319
v 0.559453 -0.453387 -0.611830
v -0.470645 1.692862 -0.047718
v -0.162981 2.516458 0.010068
v -0.106769 2.453131 -0.103204
v -0.309076 1.629535 -0.343475
v 0.015024 2.516458 -0.139296
v 0.010725 1.692862 -0.451635
v -0.412585 1.692862 0.281558
v -0.141511 2.516458 0.131830
v -0.162062 1.629536 0.490282
v -0.052405 2.453131 0.205109
v 0.177903 1.692862 0.496478
v 0.076845 2.516458 0.211305
v 0.434034 1.692862 0.281558
v 0.171559 2.516458 0.131830
v 0.486486 1.629535 -0.053915
v 0.193029 2.516458 0.010068
v 0.324917 1.692862 -0.337279
v 0.131209 2.516458 -0.097008
v 0.005286 0.842699 -0.671042
v 0.010529 1.745409 -0.315061
v 0.242392 1.745409 -0.230669
v 0.463775 0.842699 -0.504165
v 0.365764 1.745409 -0.016983
v 0.702124 0.779372 -0.087815
v 0.322917 1.745409 0.226012
v 0.623007 0.842699 0.398883
v 0.133901 1.745409 0.384616
v 0.249243 0.842699 0.712509
v -0.118452 1.682083 0.378420
v -0.244281 0.779373 0.706312
v -0.301860 1.745409 0.226012
v -0.612436 0.842699 0.398883
v -0.344706 1.745409 -0.016983
v -0.697161 0.842699 -0.081619
v -0.458813 0.779373 -0.510362
v -0.226943 1.682082 -0.236866
v -0.864248 0.078844 -0.105654
v -0.545192 0.894761 -0.046827
v -0.359524 0.831434 -0.384325
v -0.569569 0.015518 -0.631965
v 0.005569 0.894761 -0.508971
v 0.000399 0.078844 -0.831178
v -0.759959 0.078845 0.485799
v -0.478762 0.894761 0.329916
v -0.305499 0.015518 0.865646
v -0.191317 0.831434 0.569622
v 0.300687 0.078845 0.871843
v 0.196847 0.894761 0.575818
v 0.760756 0.078844 0.485799
v 0.489901 0.894761 0.329917
v 0.859436 0.015518 -0.111850
v 0.556331 0.894761 -0.046827
v 0.564756 0.078845 -0.625769
v 0.365054 0.894761 -0.378129
v -0.003388 -0.512941 -0.997131
v 0.001149 0.136518 -0.681816
v 0.474390 0.136519 -0.509570
v 0.669916 -0.512940 -0.752068
v 0.726197 0.136518 -0.073428
v 1.022565 -0.576267 -0.137744
v 0.638746 0.136519 0.422534
v 0.903752 -0.512940 0.574081
v 0.252955 0.136519 0.746250
v 0.354870 -0.512940 1.034648
v -0.256267 0.073192 0.740054
v -0.367254 -0.576267 1.028452
v -0.636448 0.136519 0.422534
v -0.910528 -0.512940 0.574081
v -0.723899 0.136518 -0.073428
v -1.034949 -0.512941 -0.131548
v -0.682301 -0.576267 -0.758265
v -0.477702 0.073192 -0.515766
v -0.018886 -1.314390 -0.264436
v -0.018886 -0.720161 -0.373037
v 0.231064 -0.720161 -0.282063
v 0.161257 -1.314390 -0.198870
v 0.364060 -0.720161 -0.051708
v 0.257109 -1.314390 -0.032850
v 0.317871 -0.720161 0.210242
v 0.223820 -1.314390 0.155942
v 0.114110 -0.720161 0.381218
v 0.076966 -1.314390 0.279167
v -0.151881 -0.720161 0.381218
v -0.114738 -1.314390 0.279166
v -0.355642 -0.720161 0.210242
v -0.261591 -1.314390 0.155942
v -0.401831 -0.720161 -0.051708
v -0.294880 -1.314390 -0.032850
v -0.268836 -0.720161 -0.282063
v -0.199028 -1.314390 -0.198870
v -0.018886 -1.895607 -0.373037
v 0.231064 -1.895607 -0.282063
v 0.364060 -1.895607 -0.051708
v 0.317871 -1.895607 0.210242
v 0.114110 -1.895607 0.381218
v -0.151881 -1.895607 0.381218
v -0.355642 -1.895607 0.210242
v -0.401831 -1.895607 -0.051708
v -0.268836 -1.895607 -0.282063
vn 0.323800 0.322100 -0.889600
vn 0.875100 0.301400 -0.378600
vn 0.829200 0.315600 -0.461300
vn 0.875500 0.301300 -0.377900
vn 0.938900 0.311100 0.147400
vn 0.954100 0.296400 0.042900
vn 0.954200 0.296200 0.042000
vn 0.610800 0.311200 0.728000
vn 0.610900 0.311200 0.728000
vn -0.121100 0.295800 0.947500
vn -0.017600 0.310300 0.950500
vn -0.122000 0.295700 0.947500
vn -0.598900 0.314400 0.736500
vn -0.527700 0.300700 0.794400
vn -0.527100 0.300600 0.794900
vn -0.932700 0.321000 0.164500
vn 0.000000 1.000000 0.000000
vn -0.332100 0.323700 -0.886000
vn -0.383300 0.316500 -0.867700
vn -0.383700 0.316500 -0.867500
vn -0.788500 0.316300 -0.527400
vn -0.815000 0.323200 -0.480900
vn -0.788300 0.316200 -0.527800
vn -0.095600 -0.990800 -0.096200
vn 0.052700 -0.997300 0.052000
vn 0.090200 -0.995600 -0.027100
vn -0.766700 0.430700 -0.476100
vn -0.766700 0.431000 -0.475800
vn -0.767000 0.434600 -0.472000
vn -0.335700 0.430300 -0.837900
vn -0.336000 0.430000 -0.838000
vn -0.331900 0.433900 -0.837600
vn -0.889800 0.428500 0.156900
vn -0.551000 0.422800 0.719500
vn -0.550900 0.422500 0.719700
vn -0.553400 0.428000 0.714600
vn -0.046100 0.418100 0.907200
vn -0.045600 0.418600 0.907000
vn -0.040200 0.424400 0.904600
vn 0.584400 0.416300 0.696500
vn 0.907200 0.397100 0.138700
vn 0.907100 0.397300 0.138800
vn 0.916300 0.381000 0.123600
vn 0.801500 0.403500 -0.441400
vn 0.801400 0.403600 -0.441500
vn 0.813800 0.389100 -0.431700
vn 0.309300 0.426600 -0.849900
vn -0.789200 0.340400 -0.511200
vn -0.768300 0.327600 -0.549900
vn -0.791900 0.342100 -0.505800
vn -0.408900 0.327200 -0.851900
vn -0.366900 0.340100 -0.865900
vn -0.361100 0.341800 -0.867600
vn -0.927900 0.335100 0.163600
vn -0.482100 0.310700 0.819200
vn -0.543300 0.334800 0.769900
vn -0.550700 0.337600 0.763400
vn -0.091000 0.332200 0.938800
vn -0.170600 0.307100 0.936300
vn -0.079600 0.335600 0.938600
vn 0.607800 0.325400 0.724400
vn 0.935000 0.322300 0.147800
vn 0.946300 0.308700 0.096400
vn 0.947400 0.307000 0.090200
vn 0.850700 0.314000 -0.421600
vn 0.825700 0.326300 -0.460200
vn 0.853600 0.312500 -0.416900
vn 0.322400 0.334200 -0.885700
vn 0.320900 0.345800 -0.881700
vn 0.837200 0.327300 -0.438100
vn 0.821800 0.337100 -0.459300
vn 0.841300 0.324600 -0.432200
vn 0.930900 0.333700 0.148400
vn 0.939000 0.322600 0.119400
vn 0.941000 0.319500 0.111400
vn 0.604700 0.339000 0.720700
vn -0.064800 0.344400 0.936600
vn -0.092100 0.333100 0.938400
vn -0.056400 0.347800 0.935900
vn -0.540700 0.337000 0.770700
vn -0.559000 0.347400 0.752900
vn -0.564100 0.350200 0.747700
vn -0.923000 0.348700 0.162700
vn -0.368000 0.344800 -0.863500
vn -0.353200 0.350900 -0.867300
vn -0.348800 0.352700 -0.868300
vn -0.792600 0.351900 -0.498000
vn -0.786400 0.345800 -0.511900
vn -0.794400 0.353700 -0.493800
vn -0.796200 0.351700 -0.492400
vn -0.794600 0.348900 -0.496800
vn -0.797400 0.353700 -0.489000
vn -0.351600 0.347900 -0.869100
vn -0.347000 0.350600 -0.869900
vn -0.343400 0.352600 -0.870500
vn -0.922800 0.349100 0.162700
vn -0.563000 0.341600 0.752600
vn -0.568100 0.346100 0.746600
vn -0.571800 0.349300 0.742300
vn -0.052300 0.342500 0.938100
vn -0.060700 0.337600 0.939300
vn -0.045800 0.346400 0.937000
vn 0.604800 0.338500 0.720800
vn 0.932300 0.330100 0.147800
vn 0.937600 0.321400 0.132500
vn 0.941100 0.315400 0.122000
vn 0.832100 0.326700 -0.448300
vn 0.823000 0.334300 -0.459200
vn 0.838000 0.321500 -0.440900
vn 0.320900 0.346100 -0.881600
vn 0.311400 0.413300 -0.855700
vn 0.808500 0.390300 -0.440500
vn 0.804700 0.394200 -0.444000
vn 0.818800 0.379300 -0.430900
vn 0.910800 0.388400 0.139800
vn 0.913300 0.384200 0.134900
vn 0.920400 0.371800 0.120600
vn 0.588100 0.403500 0.700900
vn -0.050600 0.405800 0.912500
vn -0.052300 0.404400 0.913100
vn -0.043900 0.411700 0.910300
vn -0.550600 0.408400 0.728100
vn -0.551500 0.409900 0.726500
vn -0.554700 0.415000 0.721100
vn -0.896000 0.415000 0.158000
vn -0.341400 0.416000 -0.842900
vn -0.340200 0.416900 -0.842900
vn -0.335800 0.420500 -0.842900
vn -0.770900 0.417600 -0.481000
vn -0.770700 0.416600 -0.482200
vn -0.771600 0.421100 -0.476700
vn 0.197600 -0.844900 0.497100
vn 0.172300 -0.873900 0.454500
vn 0.236200 -0.793500 0.560800
vn 0.421300 -0.867100 0.266000
vn 0.454200 -0.840600 0.295100
vn 0.511500 -0.786400 0.346400
vn 0.451100 -0.888900 -0.079500
vn 0.028700 -0.833100 -0.552300
vn 0.041000 -0.791800 -0.609300
vn 0.060100 -0.717900 -0.693500
vn 0.350100 -0.796900 -0.492300
vn 0.318700 -0.843700 -0.432000
vn 0.385500 -0.731800 -0.562000
vn -0.304900 -0.880400 -0.363300
vn -0.651400 -0.757100 0.049400
vn -0.610600 -0.791600 0.021500
vn -0.446500 -0.891300 -0.078700
vn -0.616700 -0.770400 0.162000
vn -0.623000 -0.757100 0.196400
vn -0.642100 -0.671100 0.370700
vn -0.143900 -0.907200 0.395400
vn -0.129500 -0.925500 0.355900
vn -0.509900 -0.847200 0.148800
vn -0.558200 -0.790200 0.252900
vn -0.593800 -0.727900 0.342800
vn -0.630000 -0.776500 0.007400
vn -0.513400 -0.857500 -0.033500
vn -0.397600 -0.914900 -0.070100
vn -0.269100 -0.908100 -0.320700
vn 0.210500 -0.868300 -0.449100
vn 0.187100 -0.902700 -0.387300
vn 0.224000 -0.845200 -0.485200
vn 0.105600 -0.900900 -0.421100
vn 0.126300 -0.868100 -0.480100
vn 0.140000 -0.843300 -0.518800
vn 0.398700 -0.914400 -0.070300
vn 0.287200 -0.918500 0.271800
vn 0.320900 -0.894900 0.310200
vn 0.344700 -0.875900 0.337500
vn 0.247400 -0.895600 0.369800
vn 0.213800 -0.920200 0.327900
vn 0.269300 -0.877500 0.396900
vn 0.230300 -0.928500 0.291400
vn 0.198300 -0.946000 0.256300
vn 0.244700 -0.919600 0.307200
vn 0.218500 -0.945600 0.240900
vn 0.246600 -0.928600 0.277300
vn 0.260200 -0.919400 0.294900
vn 0.335600 -0.940100 -0.059200
vn 0.110600 -0.935900 -0.334500
vn 0.131500 -0.913700 -0.384600
vn 0.141100 -0.902200 -0.407600
vn 0.146600 -0.913300 -0.379900
vn 0.129700 -0.936400 -0.326100
vn 0.153600 -0.902400 -0.402600
vn -0.226300 -0.936000 -0.269700
vn -0.575000 -0.818100 -0.009600
vn -0.425000 -0.904200 -0.042000
vn -0.336800 -0.939700 -0.059400
vn -0.419300 -0.898500 0.129800
vn -0.498800 -0.830100 0.249200
vn -0.535300 -0.786100 0.309000
vn -0.110700 -0.946200 0.304100
vn -0.130200 -0.924700 0.357700
vn -0.444100 -0.881200 0.161900
vn -0.549900 -0.781600 0.294600
vn -0.579000 -0.743700 0.334300
vn -0.643900 -0.764100 -0.039000
vn -0.465100 -0.883000 -0.062300
vn -0.396500 -0.915400 -0.069900
vn -0.266000 -0.910400 -0.317000
vn 0.112700 -0.892000 -0.437800
vn 0.101900 -0.914600 -0.391400
vn 0.115600 -0.885300 -0.450500
vn 0.173500 -0.915100 -0.364000
vn 0.194400 -0.893500 -0.404900
vn 0.200500 -0.886600 -0.416900
vn 0.392700 -0.917000 -0.069200
vn 0.212500 -0.928200 0.305400
vn 0.234100 -0.911400 0.338500
vn 0.240700 -0.905900 0.348600
vn 0.294900 -0.910300 0.290500
vn 0.265300 -0.927600 0.262900
vn 0.303400 -0.904900 0.298400
vn 0.256900 -0.932800 0.252900
vn 0.230300 -0.946100 0.227600
vn 0.264800 -0.928500 0.260500
vn 0.183900 -0.946500 0.265300
vn 0.203900 -0.933400 0.295300
vn 0.210200 -0.929000 0.304700
vn 0.338100 -0.939200 -0.059600
vn 0.148200 -0.938600 -0.311500
vn 0.166500 -0.922500 -0.348300
vn 0.172000 -0.917200 -0.359500
vn 0.097300 -0.921500 -0.376000
vn 0.087300 -0.938300 -0.334600
vn 0.100100 -0.916300 -0.387700
vn -0.228200 -0.934800 -0.272000
vn -0.572000 -0.819600 -0.034200
vn -0.403700 -0.913300 -0.054000
vn -0.342100 -0.937700 -0.060300
vn -0.386600 -0.911300 0.141400
vn -0.489800 -0.831200 0.263000
vn -0.519200 -0.800300 0.299800
vn -0.113300 -0.943500 0.311400
vn -0.281700 -0.567300 0.773800
vn -0.759500 -0.586400 0.281700
vn -0.585000 -0.774800 0.239600
vn -0.800400 -0.524400 0.290300
vn -0.549400 -0.834800 -0.035000
vn -0.357300 -0.932700 -0.049300
vn -0.300200 -0.952400 -0.052900
vn -0.298400 -0.902300 -0.311200
vn -0.606500 -0.596300 -0.525900
vn -0.656100 -0.509000 -0.557200
vn 0.054200 -0.530900 -0.845700
vn 0.050500 -0.540600 -0.839700
vn 0.055900 -0.526100 -0.848600
vn 0.562600 -0.612000 -0.555800
vn 0.256200 -0.892000 -0.372400
vn 0.620200 -0.524300 -0.583500
vn 0.295600 -0.953900 -0.052100
vn 0.227300 -0.915000 0.333300
vn 0.428500 -0.615900 0.661100
vn 0.460300 -0.527600 0.714000
vn 0.225400 -0.948100 0.224400
vn 0.198600 -0.959400 0.200400
vn 0.232000 -0.945000 0.230400
vn 0.821200 0.317600 -0.474200
vn 0.935200 0.313300 0.164900
vn 0.000000 0.312400 0.949900
vn -0.609800 0.316300 0.726700
vn 0.000000 1.000000 -0.000100
vn -0.323500 0.324700 -0.888800
vn -0.819200 0.324300 -0.473000
vn 0.447600 -0.827500 0.339100
vn 0.255400 -0.965300 0.054000
vn 0.138100 -0.914800 -0.379500
vn -0.085900 -0.994500 0.059400
vn 0.076100 -0.875500 0.477100
vn 0.283300 -0.957700 -0.050000
vn -0.766300 0.426400 -0.480500
vn -0.340500 0.425700 -0.838400
vn -0.548100 0.416300 0.725500
vn -0.052500 0.411200 0.910000
vn 0.894900 0.417400 0.157800
vn 0.785400 0.421400 -0.453400
vn -0.762700 0.324200 -0.559700
vn -0.419600 0.323800 -0.848000
vn -0.466500 0.304500 0.830400
vn -0.191800 0.300000 0.934500
vn 0.930800 0.326500 0.164100
vn 0.817500 0.330000 -0.472000
vn 0.813800 0.341900 -0.469900
vn 0.926400 0.339200 0.163400
vn -0.105300 0.327600 0.938900
vn -0.532300 0.332200 0.778600
vn -0.374900 0.342000 -0.861700
vn -0.783400 0.343000 -0.518300
vn -0.793000 0.346200 -0.501200
vn -0.356300 0.345100 -0.868300
vn -0.558000 0.337200 0.758200
vn -0.069200 0.332400 0.940600
vn 0.926600 0.338800 0.163400
vn 0.813900 0.341800 -0.469900
vn 0.790500 0.408400 -0.456400
vn 0.900600 0.404500 0.158800
vn -0.060500 0.397200 0.915800
vn -0.546500 0.402100 0.734600
vn -0.346700 0.411600 -0.842800
vn -0.769700 0.412300 -0.487400
vn 0.140100 -0.905900 0.399600
vn 0.372200 -0.901000 0.223100
vn 0.013700 -0.877100 -0.480200
vn 0.288300 -0.881200 -0.374700
vn -0.732000 -0.672500 0.109300
vn -0.579400 -0.815000 0.011700
vn -0.469100 -0.880300 0.070800
vn -0.687500 -0.725600 0.029500
vn 0.177100 -0.915600 -0.361000
vn 0.095700 -0.914800 -0.392400
vn 0.269000 -0.929800 0.251000
vn 0.197100 -0.931100 0.307000
vn 0.187800 -0.951200 0.244900
vn 0.208800 -0.950900 0.228300
vn 0.104000 -0.942200 -0.318600
vn 0.124800 -0.942300 -0.310500
vn -0.620400 -0.784300 0.001200
vn -0.383600 -0.920100 0.079600
vn -0.413500 -0.901700 0.126000
vn -0.677200 -0.735000 -0.033900
vn 0.099900 -0.918500 -0.382600
vn 0.169300 -0.919100 -0.355700
vn 0.207700 -0.931600 0.298200
vn 0.259200 -0.931000 0.257100
vn 0.224800 -0.948700 0.222300
vn 0.179600 -0.949100 0.258800
vn 0.144400 -0.941700 -0.303900
vn 0.085300 -0.941300 -0.326700
vn -0.603900 -0.796500 -0.029900
vn -0.359100 -0.926700 0.110600
vn -0.519000 -0.825300 0.222300
vn -0.579000 -0.814700 -0.032500
vn -0.200100 -0.950300 -0.238500
vn 0.049100 -0.544400 -0.837400
vn 0.157600 -0.939200 -0.305000
vn 0.159300 -0.961400 0.224300
vn 0.194000 -0.961200 0.196200
vn 0.337100 -0.169300 -0.926100
vn 0.853500 -0.169300 -0.492800
vn 0.970600 -0.169300 0.171100
vn 0.633500 -0.169300 0.755000
vn -0.000000 -0.169300 0.985600
vn -0.633500 -0.169300 0.755000
vn -0.970600 -0.169300 0.171100
vn -0.337100 -0.169300 -0.926100
vn -0.853500 -0.169300 -0.492800
vn -0.000000 -1.000000 0.000000
vn -0.853000 0.172900 -0.492500
vn -0.336900 0.172900 -0.925500
vn -0.970000 0.172900 0.171000
vn -0.633100 0.172900 0.754500
vn -0.000000 0.172900 0.984900
vn 0.633100 0.172900 0.754500
vn 0.970000 0.172900 0.171000
vn 0.853000 0.172900 -0.492500
vn 0.336900 0.172900 -0.925500
s 1
f 2//1 4//1 1//1
f 4//2 5//3 6//4
f 5//5 8//6 6//7
f 7//8 10//9 8//9
f 10//10 11//11 12//12
f 11//13 14//14 12//15
f 14//16 15//16 16//16
f 2//17 9//17 7//17
f 17//18 1//19 18//20
f 16//21 17//22 18//23
f 21//24 24//25 19//26
f 28//27 30//28 31//29
f 30//30 33//31 31//32
f 34//33 29//33 28//33
f 37//34 34//35 36//36
f 38//37 37//38 36//39
f 40//40 39//40 38//40
f 43//41 40//42 42//43
f 44//44 43//45 42//46
f 32//47 44//47 33//47
f 46//48 48//49 49//50
f 48//51 51//52 49//53
f 52//54 47//54 46//54
f 55//55 52//56 54//57
f 56//58 55//59 54//60
f 58//61 57//61 56//61
f 61//62 58//63 60//64
f 62//65 61//66 60//67
f 50//68 62//68 51//68
f 65//69 67//69 64//69
f 67//70 68//71 69//72
f 68//73 71//74 69//75
f 71//76 72//76 73//76
f 73//77 74//78 75//79
f 74//80 77//81 75//82
f 77//83 78//83 79//83
f 81//84 64//85 80//86
f 79//87 81//88 80//89
f 82//90 84//91 85//92
f 84//93 87//94 85//95
f 88//96 83//96 82//96
f 91//97 88//98 90//99
f 92//100 91//101 90//102
f 94//103 93//103 92//103
f 97//104 94//105 96//106
f 98//107 97//108 96//109
f 86//110 98//110 87//110
f 101//111 103//111 100//111
f 103//112 104//113 105//114
f 104//115 107//116 105//117
f 107//118 108//118 109//118
f 109//119 110//120 111//121
f 110//122 113//123 111//124
f 113//125 114//125 115//125
f 117//126 100//127 116//128
f 115//129 117//130 116//131
f 16//132 48//133 47//134
f 48//135 1//136 50//137
f 14//138 47//138 53//138
f 55//139 14//140 53//141
f 10//142 55//143 57//144
f 59//145 10//145 57//145
f 61//146 8//147 59//148
f 63//149 6//150 61//151
f 50//152 4//152 63//152
f 65//153 62//153 66//153
f 66//154 60//155 68//156
f 68//157 58//158 70//159
f 70//160 56//160 72//160
f 56//161 74//162 72//163
f 74//164 52//165 76//166
f 52//167 78//167 76//167
f 81//168 51//169 65//170
f 46//171 81//172 78//173
f 79//174 84//175 83//176
f 84//177 64//178 86//179
f 77//180 83//180 89//180
f 91//181 77//182 89//183
f 73//184 91//185 93//186
f 95//187 73//187 93//187
f 97//188 71//189 95//190
f 99//191 69//192 97//193
f 86//194 67//194 99//194
f 101//195 98//195 102//195
f 102//196 96//197 104//198
f 104//199 94//200 106//201
f 106//202 92//202 108//202
f 92//203 110//204 108//205
f 110//206 88//207 112//208
f 88//209 114//209 112//209
f 117//210 87//211 101//212
f 82//213 117//214 114//215
f 115//216 30//217 29//218
f 30//219 100//220 32//221
f 113//222 29//222 35//222
f 37//223 113//224 35//225
f 109//226 37//227 39//228
f 41//229 109//229 39//229
f 43//230 107//231 41//232
f 45//233 105//234 43//235
f 32//236 103//236 45//236
f 19//237 44//237 20//237
f 44//238 21//239 20//240
f 21//241 40//242 22//243
f 22//244 38//245 23//246
f 38//247 24//248 23//249
f 36//250 25//251 24//252
f 34//253 26//253 25//253
f 27//254 33//255 19//256
f 28//257 27//258 26//259
f 2//1 3//1 4//1
f 4//2 3//260 5//3
f 5//5 7//261 8//6
f 7//8 9//8 10//9
f 10//10 9//262 11//11
f 11//13 13//263 14//14
f 14//16 13//16 15//16
f 5//17 3//17 7//17
f 2//17 17//17 11//17
f 15//17 13//264 11//17
f 11//17 9//17 2//17
f 7//17 3//17 2//17
f 17//17 15//17 11//17
f 17//18 2//265 1//19
f 16//21 15//266 17//22
f 27//267 19//26 26//268
f 20//269 21//24 19//26
f 22//270 23//271 24//25
f 24//25 25//272 26//268
f 26//268 19//26 24//25
f 21//24 22//270 24//25
f 28//27 29//273 30//28
f 30//30 32//274 33//31
f 34//33 35//33 29//33
f 37//34 35//275 34//35
f 38//37 39//276 37//38
f 40//40 41//40 39//40
f 43//41 41//277 40//42
f 44//44 45//278 43//45
f 32//47 45//47 44//47
f 46//48 47//279 48//49
f 48//51 50//280 51//52
f 52//54 53//54 47//54
f 55//55 53//281 52//56
f 56//58 57//282 55//59
f 58//61 59//61 57//61
f 61//62 59//283 58//63
f 62//65 63//284 61//66
f 50//68 63//68 62//68
f 65//69 66//69 67//69
f 67//70 66//285 68//71
f 68//73 70//286 71//74
f 71//76 70//76 72//76
f 73//77 72//287 74//78
f 74//80 76//288 77//81
f 77//83 76//83 78//83
f 81//84 65//289 64//85
f 79//87 78//290 81//88
f 82//90 83//291 84//91
f 84//93 86//292 87//94
f 88//96 89//96 83//96
f 91//97 89//293 88//98
f 92//100 93//294 91//101
f 94//103 95//103 93//103
f 97//104 95//295 94//105
f 98//107 99//296 97//108
f 86//110 99//110 98//110
f 101//111 102//111 103//111
f 103//112 102//297 104//113
f 104//115 106//298 107//116
f 107//118 106//118 108//118
f 109//119 108//299 110//120
f 110//122 112//300 113//123
f 113//125 112//125 114//125
f 117//126 101//301 100//127
f 115//129 114//302 117//130
f 16//132 18//303 48//133
f 48//135 18//304 1//136
f 14//138 16//138 47//138
f 55//139 12//305 14//140
f 10//142 12//306 55//143
f 59//145 8//145 10//145
f 61//146 6//307 8//147
f 63//149 4//308 6//150
f 50//152 1//152 4//152
f 65//153 51//153 62//153
f 66//154 62//309 60//155
f 68//157 60//310 58//158
f 70//160 58//160 56//160
f 56//161 54//311 74//162
f 74//164 54//312 52//165
f 52//167 46//167 78//167
f 81//168 49//313 51//169
f 46//171 49//314 81//172
f 79//174 80//315 84//175
f 84//177 80//316 64//178
f 77//180 79//180 83//180
f 91//181 75//317 77//182
f 73//184 75//318 91//185
f 95//187 71//187 73//187
f 97//188 69//319 71//189
f 99//191 67//320 69//192
f 86//194 64//194 67//194
f 101//195 87//195 98//195
f 102//196 98//321 96//197
f 104//199 96//322 94//200
f 106//202 94//202 92//202
f 92//203 90//323 110//204
f 110//206 90//324 88//207
f 88//209 82//209 114//209
f 117//210 85//325 87//211
f 82//213 85//326 117//214
f 115//216 116//327 30//217
f 30//219 116//328 100//220
f 113//222 115//222 29//222
f 37//223 111//329 113//224
f 109//226 111//330 37//227
f 41//229 107//229 109//229
f 43//230 105//331 107//231
f 45//233 103//332 105//234
f 32//236 100//236 103//236
f 19//237 33//237 44//237
f 44//238 42//333 21//239
f 21//241 42//334 40//242
f 22//244 40//335 38//245
f 38//247 36//336 24//248
f 36//250 34//337 25//251
f 34//253 28//253 26//253
f 27//254 31//338 33//255
f 28//257 31//339 27//258
f 119//340 121//340 118//340
f 120//341 123//341 121//341
f 123//342 124//342 125//342
f 125//343 126//343 127//343
f 127//344 128//344 129//344
f 129//345 130//345 131//345
f 130//346 133//346 131//346
f 119//17 128//17 124//17
f 135//347 119//347 118//347
f 133//348 134//348 135//348
f 137//349 142//349 143//349
f 133//350 144//350 143//350
f 135//351 136//351 144//351
f 131//352 143//352 142//352
f 129//353 142//353 141//353
f 127//354 141//354 140//354
f 125//355 140//355 139//355
f 123//356 139//356 138//356
f 137//357 123//357 138//357
f 136//358 121//358 137//358
f 119//340 120//340 121//340
f 120//341 122//341 123//341
f 123//342 122//342 124//342
f 125//343 124//343 126//343
f 127//344 126//344 128//344
f 129//345 128//345 130//345
f 130//346 132//346 133//346
f 122//17 120//17 124//17
f 119//17 134//17 132//17
f 132//17 130//17 119//17
f 128//17 126//17 124//17
f 124//17 120//17 119//17
f 119//17 130//17 128//17
f 135//347 134//347 119//347
f 133//348 132//348 134//348
f 144//349 136//349 143//349
f 137//349 138//349 139//349
f 139//349 140//349 141//349
f 141//349 142//349 137//349
f 143//349 136//349 137//349
f 137//349 139//349 141//349
f 133//350 135//350 144//350
f 135//351 118//351 136//351
f 131//352 133//352 143//352
f 129//353 131//353 142//353
f 127//354 129//354 141//354
f 125//355 127//355 140//355
f 123//356 125//356 139//356
f 137//357 121//357 123//357
f 136//358 118//358 121//358
